<svg width="626" height="65" viewBox="0 0 626 65" fill="none" xmlns="http://www.w3.org/2000/svg">
<path d="M17.5933 35.466C17.5263 42.635 15.7173 45.516 11.2283 45.516C6.87334 45.516 5.19834 42.501 5.19834 34.729V15.433C5.19834 7.728 6.87334 4.713 11.1613 4.713C15.3823 4.713 16.9903 7.192 17.2583 13.825H21.6803C21.6803 10.341 21.3453 8.331 20.6083 6.589C18.9333 2.636 15.7173 0.625996 11.0273 0.625996C7.34234 0.625996 4.52834 1.899 2.65234 4.378C0.97734 6.656 0.30734 9.872 0.30734 15.232V34.93C0.30734 39.754 0.91034 43.037 2.18334 45.114C3.99234 48.062 7.07434 49.603 11.0273 49.603C15.7173 49.603 19.0003 47.593 20.7423 43.774C21.7473 41.63 22.0823 39.486 22.0823 35.466H17.5933ZM33.9188 1.162V38.481C33.9188 46.923 35.5268 48.933 42.2938 49H43.4328V44.98H42.4278C39.4798 44.98 38.5418 43.506 38.6088 38.883V1.162H33.9188ZM52.6699 15.366V37.208C52.6699 40.692 52.9379 43.037 53.4069 44.511C54.5459 47.794 57.0919 49.603 60.5089 49.603C63.5239 49.603 64.9309 48.866 66.9409 46.186L67.2759 49H70.8269V15.366H66.1369V35.198C66.1369 42.568 64.7969 45.516 61.4469 45.516C58.4319 45.516 57.3599 43.238 57.3599 36.672V15.366H52.6699ZM84.1427 19.319V39.151C84.0757 47.124 85.5497 49 91.9147 49H93.3217V44.98H92.3167C89.6367 45.047 88.7657 43.707 88.8327 39.62V19.319H93.2547V15.366H88.8327V4.579H84.3437L84.1427 15.366H81.2617V19.319H84.1427ZM117.328 38.079C117.328 43.439 115.921 45.65 112.638 45.65C109.422 45.65 108.149 43.171 108.149 37.007V27.359C108.149 21.128 109.422 18.649 112.638 18.649C115.72 18.649 117.06 20.86 117.127 25.885H121.415C121.415 22.602 121.147 20.994 120.477 19.453C119.271 16.438 116.323 14.696 112.571 14.696C109.422 14.696 106.742 15.969 105.335 18.18C104.062 20.123 103.459 23.205 103.459 27.694V36.672C103.459 45.717 106.206 49.603 112.504 49.603C117.06 49.603 120.343 47.325 121.214 43.439C121.549 41.831 121.683 40.96 121.683 38.079H117.328ZM132.894 49H137.584V29.168C137.584 21.731 138.991 18.85 142.542 18.85C145.825 18.85 146.964 21.128 146.964 27.627V49H151.654V27.091C151.654 23.607 151.386 21.329 150.85 19.855C149.711 16.572 147.098 14.763 143.547 14.763C141.001 14.763 139.259 15.5 137.584 17.108V1.162H132.894V49ZM168.172 32.987H182.443V28.096C182.443 18.649 179.696 14.763 172.929 14.763C166.229 14.763 163.482 18.649 163.482 28.096V36.337C163.482 45.65 166.296 49.603 172.929 49.603C176.748 49.603 179.629 48.129 181.036 45.583C181.907 43.774 182.242 41.898 182.309 38.414H177.887C177.887 43.506 176.48 45.65 172.996 45.65C169.512 45.65 168.172 43.305 168.172 37.275V32.987ZM168.172 29.235V26.89C168.172 20.927 169.445 18.716 172.996 18.716C176.547 18.716 177.887 20.927 177.887 26.89V29.235H168.172ZM192.935 38.079C192.935 41.094 193.136 42.702 193.672 44.109C194.945 47.593 198.161 49.603 202.516 49.603C208.814 49.603 212.231 46.119 212.231 39.62C212.231 34.461 210.489 32.049 205.732 30.642C201.645 29.436 201.377 29.302 200.439 28.699C198.831 27.694 198.161 26.287 198.161 23.942C198.161 20.592 199.702 18.716 202.449 18.716C205.531 18.716 206.871 20.793 206.938 25.416H211.226C211.226 22.468 210.958 20.86 210.355 19.386C209.082 16.438 206.134 14.763 202.315 14.763C196.754 14.763 193.739 18.046 193.739 23.942C193.739 29.57 195.615 31.781 201.98 33.791C205.062 34.729 205.397 34.863 206.201 35.466C207.273 36.27 207.809 37.744 207.809 39.687C207.809 43.506 205.933 45.65 202.583 45.65C200.305 45.65 198.697 44.712 197.893 42.836C197.491 41.831 197.29 40.625 197.29 38.079H192.935ZM223.451 49H228.342V42.702H223.451V49ZM241.703 49H252.825C256.912 49 258.989 48.33 260.731 46.454C262.674 44.243 263.813 40.558 263.813 36.27C263.813 30.039 262.071 26.019 258.654 24.009C261.669 22.334 263.21 18.716 263.21 13.49C263.21 9.671 262.138 6.187 260.396 4.043C258.52 1.899 256.175 1.162 251.351 1.162H241.703V49ZM246.594 22.334V5.249H251.418C253.897 5.249 255.304 5.718 256.376 6.924C257.582 8.264 258.319 10.877 258.319 13.825C258.319 19.453 256.242 22.334 252.088 22.334H246.594ZM246.594 44.913V26.421H252.624C254.768 26.421 255.907 26.89 256.979 28.23C258.185 29.704 258.922 32.652 258.922 35.935C258.922 38.749 258.252 41.429 257.18 42.903C256.108 44.377 254.768 44.913 251.887 44.913H246.594ZM288.413 29.369H283.388C276.621 29.369 274.008 32.25 274.008 39.687C274.008 46.856 276.42 49.603 282.785 49.603C286.068 49.603 287.609 49 289.083 47.191L289.418 49H293.103V27.225C293.103 18.448 290.423 14.763 283.991 14.763C280.574 14.763 277.894 16.103 276.42 18.448C275.415 20.056 275.08 21.865 275.08 25.617H279.435C279.435 20.726 280.708 18.716 283.857 18.716C287.274 18.716 288.413 20.793 288.413 26.89V29.369ZM288.413 33.121V39.084C288.413 44.042 287.341 45.583 283.79 45.583C279.971 45.583 278.698 44.109 278.698 39.62C278.698 34.93 280.373 33.121 284.594 33.121H288.413ZM319.305 52.216C319.305 58.514 318.099 60.725 314.481 60.725C311.533 60.725 310.327 58.983 310.327 54.695H306.106C306.106 57.509 306.307 58.983 306.91 60.39C308.116 63.137 310.729 64.611 314.481 64.611C321.181 64.611 323.995 60.792 323.995 51.613V15.366H320.31L319.774 17.912C318.032 15.634 316.29 14.763 313.409 14.763C307.647 14.763 304.967 18.649 304.967 27.225V36.404C304.967 45.449 307.647 49.603 313.543 49.603C316.089 49.603 317.496 49 319.305 47.325V52.216ZM309.657 26.957C309.657 21.53 311.198 18.85 314.28 18.85C317.697 18.85 319.305 22.267 319.305 29.57V34.796C319.305 42.032 317.697 45.516 314.347 45.516C311.198 45.516 309.657 42.635 309.657 36.739V26.957ZM334.944 38.079C334.944 41.094 335.145 42.702 335.681 44.109C336.954 47.593 340.17 49.603 344.525 49.603C350.823 49.603 354.24 46.119 354.24 39.62C354.24 34.461 352.498 32.049 347.741 30.642C343.654 29.436 343.386 29.302 342.448 28.699C340.84 27.694 340.17 26.287 340.17 23.942C340.17 20.592 341.711 18.716 344.458 18.716C347.54 18.716 348.88 20.793 348.947 25.416H353.235C353.235 22.468 352.967 20.86 352.364 19.386C351.091 16.438 348.143 14.763 344.324 14.763C338.763 14.763 335.748 18.046 335.748 23.942C335.748 29.57 337.624 31.781 343.989 33.791C347.071 34.729 347.406 34.863 348.21 35.466C349.282 36.27 349.818 37.744 349.818 39.687C349.818 43.506 347.942 45.65 344.592 45.65C342.314 45.65 340.706 44.712 339.902 42.836C339.5 41.831 339.299 40.625 339.299 38.079H334.944ZM365.46 49H370.351V42.702H365.46V49ZM399.188 38.28L401.466 49H406.692L394.833 1.162H390.746L378.887 49H384.18L386.458 38.28H399.188ZM398.317 34.26H387.329L392.823 8.398L398.317 34.26ZM415.145 49H419.835V29.168C419.835 21.731 421.242 18.85 424.793 18.85C428.076 18.85 429.215 21.128 429.215 27.627V49H433.905V27.158C433.905 23.607 433.637 21.329 433.101 19.855C431.962 16.572 429.349 14.763 425.731 14.763C422.649 14.763 421.041 15.567 419.031 18.18L418.696 15.366H415.145V49ZM461.142 49H464.76V1.162H460.07V17.443C458.462 15.5 456.854 14.763 454.174 14.763C448.412 14.763 445.732 18.716 445.732 27.158V36.404C445.732 45.516 448.412 49.603 454.442 49.603C457.256 49.603 458.931 48.799 460.74 46.521L461.142 49ZM450.422 26.957C450.422 21.53 451.963 18.85 455.045 18.85C458.462 18.85 460.07 22.334 460.07 29.57V34.796C460.07 42.032 458.462 45.516 455.045 45.516C451.963 45.516 450.422 42.635 450.422 36.806V26.957ZM492.747 49H497.437V29.168C497.437 21.731 498.777 18.85 502.127 18.85C505.075 18.85 506.147 21.128 506.147 27.627V49H510.837V28.833C510.837 21.798 512.177 18.85 515.46 18.85C518.475 18.85 519.547 21.128 519.547 27.627V49H524.237V27.158C524.237 23.607 524.036 21.396 523.5 19.855C522.361 16.572 519.815 14.763 516.398 14.763C513.383 14.763 511.44 15.835 509.832 18.515C508.626 16.036 506.348 14.763 503.199 14.763C500.117 14.763 498.643 15.5 496.633 18.18L496.298 15.366H492.747V49ZM536.093 36.806C536.093 45.851 538.907 49.603 545.741 49.603C552.508 49.603 555.322 45.851 555.322 36.806V27.493C555.322 23.272 554.853 20.659 553.714 18.783C552.173 16.17 549.426 14.763 545.741 14.763C538.907 14.763 536.093 18.515 536.093 27.493V36.806ZM550.632 37.275C550.632 43.372 549.292 45.65 545.674 45.65C542.123 45.65 540.783 43.372 540.783 37.275V27.091C540.783 20.994 542.123 18.716 545.674 18.716C549.292 18.716 550.632 20.994 550.632 27.091V37.275ZM567.36 49H572.05V32.518C572.05 22.87 573.256 18.85 576.271 18.85C577.343 18.85 578.281 19.319 579.42 20.458L581.564 16.505C579.956 15.232 578.683 14.763 576.941 14.763C574.395 14.763 572.854 15.768 571.581 18.18L570.978 15.366H567.36V49ZM594.786 32.987H609.057V28.096C609.057 18.649 606.31 14.763 599.543 14.763C592.843 14.763 590.096 18.649 590.096 28.096V36.337C590.096 45.65 592.91 49.603 599.543 49.603C603.362 49.603 606.243 48.129 607.65 45.583C608.521 43.774 608.856 41.898 608.923 38.414H604.501C604.501 43.506 603.094 45.65 599.61 45.65C596.126 45.65 594.786 43.305 594.786 37.275V32.987ZM594.786 29.235V26.89C594.786 20.927 596.059 18.716 599.61 18.716C603.161 18.716 604.501 20.927 604.501 26.89V29.235H594.786ZM620.774 49H625.665V42.702H620.774V49Z" fill="white"/>
</svg>
