<svg width="298" height="45" viewBox="0 0 298 45" fill="none" xmlns="http://www.w3.org/2000/svg">
<g clip-path="url(#clip0_40_71)">
<path d="M1.87553 44.5068H0V0.493103H6.43041C10.616 0.493103 12.8608 1.41512 14.5481 3.82379C16.047 5.8608 16.735 8.69116 16.735 12.3292C16.735 18.6761 14.4901 22.6858 10.3046 23.7936L16.8002 44.5068H14.8015L8.61732 24.1653H1.87553V44.5068ZM6.1842 22.4356C9.92802 22.4356 11.6153 21.7566 12.9912 19.6624C14.2367 17.8756 14.8667 15.474 14.8667 12.3864C14.8667 8.9985 14.1208 6.28249 12.6798 4.55997C11.3039 2.8303 9.68182 2.21562 6.37247 2.21562H1.87553V22.4356H6.1842Z" fill="black"/>
<path d="M45.1504 0.493103H60.1982V2.22277H47.0187V21.3349H58.2574V23.0574H47.0187V42.7842H60.133V44.5139H45.1432V0.493103H45.1504Z" fill="black"/>
<path d="M87.6143 0.493044H95.7319C101.851 0.371538 105.349 4.62424 105.16 11.9575V32.978C105.349 40.4398 101.851 44.6282 95.7319 44.5067H87.6143V0.493044ZM95.4857 42.777C100.794 42.8414 103.415 39.4463 103.292 32.6706V12.3291C103.415 5.48907 100.794 2.15839 95.4857 2.22271H89.4898V42.7842H95.4857V42.777Z" fill="black"/>
<path d="M150.311 32.6708V34.086C150.246 41.4836 147.436 45.0001 141.693 45.0001C135.951 45.0001 133.453 41.1762 133.453 32.921V12.0863C133.453 3.76676 136.074 0.00723267 141.824 0.00723267C145.633 0.00723267 148.254 1.85841 149.384 5.36778C149.883 6.84729 150.072 8.51263 150.072 11.4073H148.319C148.254 4.68878 146.321 1.72976 141.824 1.72976C137.327 1.72976 135.328 4.81028 135.328 11.9648V33.0496C135.328 40.1399 137.262 43.2847 141.759 43.2847C146.632 43.2847 148.566 40.2614 148.566 32.7423L150.318 32.678L150.311 32.6708Z" fill="black"/>
<path d="M180.971 44.5068H179.095V0.493103H185.526C189.711 0.493103 191.956 1.41512 193.644 3.82379C195.143 5.8608 195.83 8.69116 195.83 12.3292C195.83 18.6761 193.586 22.6858 189.4 23.7936L195.896 44.5068H193.897L187.713 24.1653H180.971V44.5068ZM185.28 22.4356C189.023 22.4356 190.711 21.7566 192.087 19.6624C193.339 17.8756 193.962 15.474 193.962 12.3864C193.962 8.9985 193.209 6.28249 191.775 4.55997C190.399 2.8303 188.777 2.21562 185.468 2.21562H180.971V22.4356H185.28Z" fill="black"/>
<path d="M223.869 11.8933C223.869 7.8264 224.492 5.29622 226.056 3.26636C227.744 1.05067 229.93 0 232.928 0C236.173 0 238.548 1.22935 240.17 3.82386C241.415 5.73221 241.98 8.19806 241.98 11.9004V33.1067C241.98 37.1736 241.357 39.7038 239.793 41.7336C238.106 43.9493 235.919 45 232.921 45C229.677 45 227.302 43.7635 225.68 41.1761C224.427 39.2678 223.869 36.8019 223.869 33.0996V11.8933ZM240.105 12.2649C240.105 8.44107 239.605 6.22538 238.352 4.49571C237.042 2.58736 235.289 1.72252 232.921 1.72252C230.358 1.72252 228.489 2.77319 227.179 4.9317C226.179 6.59705 225.745 8.75556 225.745 12.2649V32.7279C225.745 36.5518 226.245 38.7675 227.497 40.4971C228.808 42.4055 230.56 43.2703 232.928 43.2703C235.492 43.2703 237.36 42.2197 238.671 40.0683C239.67 38.403 240.105 36.2444 240.105 32.7351V12.2721V12.2649Z" fill="black"/>
<path d="M268.708 0.493103H270.519L275.327 38.7102L282.822 0.493103H283.944L291.374 38.7102L296.248 0.493103H298L292.315 44.5068H290.882L283.387 6.10381L275.892 44.5068H274.393L268.708 0.493103Z" fill="black"/>
</g>
<defs>
<clipPath id="clip0_40_71">
<rect width="298" height="45" fill="white"/>
</clipPath>
</defs>
</svg>
